<?xml version="1.0" encoding="utf-8"?>
<!-- Generator: Adobe Illustrator 24.0.1, SVG Export Plug-In . SVG Version: 6.00 Build 0)  -->
<svg version="1.1" id="Layer_1" xmlns="http://www.w3.org/2000/svg" xmlns:xlink="http://www.w3.org/1999/xlink" x="0px" y="0px"
	 viewBox="0 0 24 24" style="enable-background:new 0 0 24 24;" xml:space="preserve">
<g>
	<path d="M12.37,9.58c-0.01-0.16-0.12-0.29-0.27-0.34c-0.15-0.04-0.31,0.01-0.4,0.14c-0.07,0.09-0.07,0.18-0.07,0.29
		c0,1.42,0,2.85,0,4.27c0,1.42,0,2.83,0,4.25c0,0.04,0,0.08,0,0.13c0.02,0.22,0.25,0.38,0.46,0.32c0.18-0.05,0.28-0.19,0.28-0.42
		c0-2.83,0-5.66,0-8.5C12.37,9.67,12.37,9.62,12.37,9.58z"/>
	<path d="M9.49,13.91C9.49,13.91,9.49,13.91,9.49,13.91c-0.03-0.96-0.06-1.93-0.09-2.89c-0.02-0.48-0.03-0.96-0.05-1.44
		C9.34,9.39,9.2,9.24,9.02,9.22C8.79,9.2,8.6,9.37,8.61,9.61c0.01,0.56,0.03,1.12,0.05,1.68c0.02,0.8,0.05,1.59,0.07,2.39
		c0.03,1,0.06,2,0.09,3c0.02,0.53,0.03,1.06,0.05,1.59c0.01,0.19,0.16,0.34,0.34,0.36c0.2,0.02,0.37-0.11,0.4-0.3
		c0.01-0.05,0.01-0.11,0.01-0.16c-0.02-0.68-0.04-1.35-0.06-2.03C9.54,15.4,9.51,14.66,9.49,13.91z"/>
	<path d="M15.12,9.24c-0.15-0.05-0.3-0.01-0.4,0.11c-0.07,0.09-0.09,0.19-0.09,0.3c-0.04,1.38-0.08,2.75-0.12,4.13
		c-0.04,1.35-0.08,2.7-0.12,4.05c0,0.15-0.01,0.31,0,0.46c0.01,0.21,0.21,0.36,0.42,0.33c0.2-0.03,0.31-0.17,0.32-0.39
		c0.01-0.29,0.02-0.58,0.02-0.87c0.03-1.15,0.07-2.31,0.1-3.46c0.01,0,0.01,0,0.02,0c0-0.19,0-0.38,0-0.57
		c0.02-0.9,0.05-1.79,0.08-2.69c0.01-0.36,0.02-0.72,0.02-1.07C15.36,9.42,15.26,9.29,15.12,9.24z"/>
	<path d="M12,0C5.37,0,0,5.37,0,12c0,6.63,5.37,12,12,12c6.63,0,12-5.37,12-12C24,5.37,18.63,0,12,0z M17.54,10.62
		c-0.06,0.88-0.13,1.75-0.19,2.63c-0.06,0.88-0.13,1.76-0.19,2.64c-0.08,1.04-0.15,2.08-0.23,3.11c-0.05,0.58-0.36,1.01-0.89,1.26
		c-0.15,0.07-0.31,0.09-0.47,0.14c-2.37,0-4.75,0-7.12,0c-0.01,0-0.02-0.01-0.04-0.01c-0.73-0.11-1.26-0.66-1.32-1.4
		c-0.06-0.77-0.11-1.53-0.17-2.3c-0.06-0.88-0.13-1.76-0.19-2.64c-0.08-1.03-0.15-2.06-0.23-3.09c-0.06-0.83-0.12-1.66-0.18-2.5
		C6.3,8.27,6.38,8.11,6.54,8.05C6.62,8.02,6.7,8.01,6.79,8.01c1.41,0,2.82,0,4.23,0c2.07,0,4.14,0,6.21,0
		c0.06,0,0.11,0.01,0.17,0.02c0.21,0.06,0.31,0.23,0.29,0.49C17.64,9.22,17.59,9.92,17.54,10.62z M18.28,6.93
		c-0.05,0.15-0.13,0.27-0.29,0.31c-0.06,0.01-0.12,0.02-0.17,0.02c-2.96,0-5.92,0-8.88,0c-0.92,0-1.84,0-2.75,0
		C6,7.26,5.85,7.2,5.76,7.03c-0.02-0.03-0.03-0.07-0.04-0.1c0-0.14,0-0.28,0-0.42c0.02-0.07,0.04-0.15,0.06-0.22
		C5.94,5.8,6.37,5.51,6.9,5.51c0.56,0,1.12,0,1.69,0c0.03,0,0.07,0,0.11,0c0-0.12,0-0.22,0-0.33C8.7,4.42,9.18,3.82,9.91,3.65
		c0.11-0.03,0.21-0.03,0.32-0.05c1.23,0,2.45,0,3.68,0c0.03,0,0.06,0.01,0.09,0.01c0.64,0.06,1.08,0.39,1.34,0.98
		c0.09,0.2,0.12,0.41,0.11,0.62c0,0.1,0,0.2,0,0.3c0.04,0,0.07,0,0.1,0c0.53,0,1.06,0,1.59,0c0.44,0,0.77,0.2,0.98,0.58
		c0.07,0.13,0.1,0.28,0.15,0.41C18.28,6.65,18.28,6.79,18.28,6.93z"/>
	<path d="M14.46,4.9c-0.13-0.25-0.34-0.36-0.61-0.36c-0.77,0-1.54,0-2.31,0c-0.44,0-0.88,0-1.32,0.01c-0.22,0-0.39,0.12-0.5,0.31
		c-0.12,0.2-0.07,0.43-0.09,0.65c1.64,0,3.26,0,4.89,0c0-0.14,0.01-0.27,0-0.41C14.51,5.03,14.49,4.96,14.46,4.9z"/>
</g>
</svg>
