<?xml version="1.0" encoding="utf-8"?>
<!-- Generator: Adobe Illustrator 24.0.1, SVG Export Plug-In . SVG Version: 6.00 Build 0)  -->
<svg version="1.1" id="Layer_1" xmlns="http://www.w3.org/2000/svg" xmlns:xlink="http://www.w3.org/1999/xlink" x="0px" y="0px"
	 viewBox="0 0 24 24" style="enable-background:new 0 0 24 24;" xml:space="preserve">
<g>
	<path d="M12,0C5.37,0,0,5.37,0,12s5.37,12,12,12s12-5.37,12-12S18.63,0,12,0z M14,18.68l-0.41,0.59c-0.73,1.03-1.28,1.71-1.35,1.8
		c-0.01,0.02-0.03,0.03-0.04,0.04c-0.13,0.11-0.32,0.09-0.43-0.04c-0.07-0.09-0.62-0.77-1.35-1.8L10,18.69
		c-1.76-2.55-4.19-6.64-4.19-9.74c0.03-3.38,2.76-6.11,6.13-6.13c3.42-0.03,6.21,2.72,6.24,6.13C18.18,12.04,15.76,16.13,14,18.68z"
		/>
	<path d="M12,5.64c-1.86,0-3.36,1.51-3.36,3.36c0,1.86,1.51,3.36,3.36,3.36c1.86,0,3.36-1.51,3.36-3.36
		C15.36,7.15,13.86,5.64,12,5.64z"/>
</g>
</svg>
