<?xml version="1.0" encoding="utf-8"?>
<!-- Generator: Adobe Illustrator 24.0.1, SVG Export Plug-In . SVG Version: 6.00 Build 0)  -->
<svg version="1.1" id="Layer_1" xmlns="http://www.w3.org/2000/svg" xmlns:xlink="http://www.w3.org/1999/xlink" x="0px" y="0px"
	 viewBox="0 0 24 24" style="enable-background:new 0 0 24 24;" xml:space="preserve">
<g>
	<polygon points="12,13.16 12,13.16 12,13.15 	"/>
	<path d="M12,0C5.37,0,0,5.37,0,12c0,6.63,5.37,12,12,12c6.63,0,12-5.37,12-12C24,5.37,18.63,0,12,0z M12.01,20.62h-0.01
		c-3.91,0-7.09-3.12-7.2-7c2.87,0,5.34,1.68,6.5,4.1v-4.36c-7.25-0.46-2.96-9.29-2.96-9.29l1.86,1.33L12,3.38l1.81,2.02l1.86-1.33
		c0,0,4.29,8.83-2.96,9.29v4.36c1.16-2.42,3.63-4.1,6.5-4.1C19.09,17.5,15.91,20.62,12.01,20.62z"/>
</g>
</svg>
